<svg xmlns="http://www.w3.org/2000/svg" viewBox="0 0 1920 1080"><defs><style>.cls-1{fill:#0c0c0b;}</style></defs><title>wednesday</title><g id="w"><path class="cls-1" d="M375.45,707.52s25.3,8.87,30.72-1.86c3-6,33.23-69.57,57.16-106,18.32-27.89,24.42-46.92,24.42-46.92S419,705.26,435.47,713.52s21.17,8.27,24,2.58,59-85.89,59-85.89-22.87,50.23.51,62,29.44-12.9,39-31.86,44.47-94.78,44.47-94.78,32.05-55.91,34.9-56.85-.21-4.35-1.16-7.2c0,0-13.46-6.23-16-1.17s-32.57,45.9-56.4,101.19-31.15,79.31-34.31,77.72,2-43.32,22.63-84.39c4.13-8.21-14.85-6.67-22.44-4.16S464,675.63,461.78,678.47s42.89-96.36,42.89-96.36,8.84-18.32,12.71-31.6c1.18-4,2.51-8.62.65-10.75-1.38-1.58-6.29-1.87-8.72-1.92,0,0-29.83-4.81-30.65-4.85-6.88-.29,4.2,11.24-11.92,27-16.67,16.31-39.57,54.61-55.76,85.25Z"/></g><g id="e"><path class="cls-1" d="M693.75,530.25s-10.59-16.35-33.93-10.77C646,522.78,625.67,544.91,608.53,577s-35.65,73.55-8.78,92.4,62.45-24.78,62.45-24.78,30.31-42.08,37.85-43.88l-22.81-6.17s-47.69,65.1-62.52,68.65-2.81-43,2.19-55.41c5.93-14.72,25.34-46.06,31.64-53.72,0,0,20.27-21.68,26.11-23.07s-25,59-33.12,64c-7.49,4.55-20.45,12.58-28.63,6.83,0,0-9.43-3.65,9.5,9.64,9.06,6.36,37.68-9.38,42.94-13.93,7-6,7.68-7,20.94-31.81C700.85,538.43,693.75,530.25,693.75,530.25Z"/></g><g id="d"><path class="cls-1" d="M822.2,535c-17.58,24.15-49.35,80.4-49.35,80.4-11.43-8.32,99.41-257.56,99.41-257.56-1-6.42-29.19-17.75-26.25-15.61,6.57,4.79-2.53,25.71-2.53,25.71-6.46,13.73-47.15,106.87-59.13,134.3-.35-1.39-3.63-4.29-3.63-4.29s-23.53-21.11-57.93,26.15S675,601.8,678.33,623.21s34.16,29.91,46.25,13.3c6.52-9,16.94-21,25-31.22-2.26,8.6-3.52,15.1-3.1,17.78,2,12.84,22.78,8.06,26.48,7.47s40.58-55.74,40.58-55.74S839.78,510.82,822.2,535ZM703,633.16c-8.64,1.36-1.78-33.8,9.14-54.5,5-9.52,21.76-39.38,37.2-57,1.78-2,3.16-4.39,5.05-6.31,3.48-3.55,9.09-8.51,13.43-10.7,3.67-1.85,13.06-1.12,12.39,3.75-.66,1.82-14.32,29.11-14.32,29.11S711.66,631.8,703,633.16Z"/></g><g id="n"><path class="cls-1" d="M846.68,474.3s1.29,3.82-2.84,13.5c0,0-6.31,13.66-21.3,46.84-8,17.79-25.23,69.69-25.23,69.69s10.61,14.34,18.55,13.4,4.64-14.19,4.64-14.19,22.56-68.68,38.91-89.42c6.35-8.05,35.66-28.71,36.49-28S858.32,585,853.32,596.75c-1.85,4.33-6.87,5.64,9,16.56,9.88,6.79,56.89-57.23,56.89-57.23s-7.2-10.85-10.81-6.27S883.32,586,883.32,586s23.74-78.57,32.32-93.37c.6-1,7.75-4,8.14-5.18.94-2.74-2.61-6.34-10.84-12.83,0,0-8.26-5.23-11.73-4.82s-28.48,21-28.48,21l-6.23,4.83c-3.75-2.72-6.9-14.32-9.65-16.1C854.46,478,846.68,474.3,846.68,474.3Z"/></g><g id="e-2" data-name="e"><path class="cls-1" d="M1020.89,452.16s-10.59-16.35-33.93-10.77c-13.86,3.31-34.15,25.43-51.29,57.54s-35.65,73.55-8.78,92.4,62.45-24.78,62.45-24.78l31-44.14-18.87-2s-44.75,61.15-59.58,64.69-2.81-43,2.19-55.41C950,515,969.39,483.68,975.69,476c0,0,20.27-21.68,26.11-23.07s-25,59-33.12,64c-7.49,4.55-20.45,12.58-28.63,6.83,0,0-9.43-3.65,9.5,9.64,9.06,6.36,37.68-9.38,42.94-13.93,7-6,7.68-7,20.94-31.81C1028,460.33,1020.89,452.16,1020.89,452.16Z"/></g><g id="s"><path class="cls-1" d="M1156.16,428.68l-14.73-4c-4.75,8.33-8.16,18.59-14.5,24.94-4,4-11.44,9.3-14.62,9.77l6.93-61.82-20.93-4.87S1024.63,490,999.8,523.64l19,1.59,7.64-9.38c-3.53,12.18-2.93,26.11,5.5,35.43,7.48,8.26,31.26,13.34,43.08,11.24,30.16-5.37,30.06-38.88,32.63-61.86.67-6,1.78-14.43,2.66-21.61,0,0,12.75-3.3,20.77-9.61C1141.46,461.32,1156.16,428.68,1156.16,428.68ZM1083.1,517c-1.53,10-4.56,21.25-13.74,27.76a18.2,18.2,0,0,1-23.88-2.66c-6.61-7.19-6.1-18.45-1.63-27.17,8.36-16.32,25.82-21.43,42.66-26.61C1085.51,497.86,1084.55,507.45,1083.1,517Zm5.17-44.87c-13.29,4.49-26.76,7.43-38.72,15.3-1.53,1-3,2.09-4.46,3.22l48.47-65.75Z"/></g><g id="d-2" data-name="d"><path class="cls-1" d="M1268.07,438.14c-17.58,24.15-49.35,80.4-49.35,80.4-11.43-8.32,99.41-257.56,99.41-257.56-1-6.42-29.19-17.75-26.25-15.61,6.57,4.79-2.53,25.71-2.53,25.71-6.46,13.73-47.15,106.87-59.13,134.3-.35-1.39-3.63-4.29-3.63-4.29s-23.53-21.11-57.93,26.15-47.83,77.72-44.46,99.12,34.16,29.91,46.25,13.3c6.52-9,16.94-21,25-31.22-2.26,8.6-3.52,15.1-3.1,17.78,2,12.84,22.78,8.06,26.48,7.47S1259.41,478,1259.41,478,1285.65,414,1268.07,438.14Zm-119.18,98.18c-8.64,1.36-1.78-33.8,9.14-54.5,5-9.52,21.76-39.38,37.2-57,1.78-2,3.16-4.39,5.05-6.31,3.48-3.55,9.09-8.51,13.43-10.7,3.67-1.85,13.06-1.12,12.39,3.75-.66,1.82-14.32,29.11-14.32,29.11S1157.53,535,1148.89,536.32Z"/></g><g id="a"><path class="cls-1" d="M1331,475.41c-8.68,4.37,14-56.1,14-56.1,7.56-20,28.76-65.28,28.76-65.28-2.15-9-18.45-9.41-18.45-9.41s-3.38,8.58-8.4,21.57c-1.51-2.17-8.93-11.84-19.84-9.24-12.26,2.93-15.17,3.36-38,34.08-27.2,36.53-53.42,108.81-35.12,117.59s27.47,10.71,43.69-10.43a103.29,103.29,0,0,0,5.83-8.7h0c.79,10.93,15.45,15.08,23.15,13.24,16.4-3.91,50.75-82.58,50.75-82.58l1.16-20.88S1339.65,471,1331,475.41Zm-43.27,5.4s-11.24,20.78-13.54,21.33-3.52-22.61-1.7-29.2c3.3-12,20.23-57.79,39.38-82.76s16.87-26.07,19.47-15.17.11,17.41.11,17.41S1304.54,458.86,1287.7,480.81Z"/></g><g id="y"><path class="cls-1" d="M1505.3,308.51c-3.47-14.54-21.9-8.85-21.9-8.85S1399.12,477,1391.1,478.95s-4.87-24.08,1.81-44.79c3.78-11.72,27.37-86,27.37-86-3.47-14.54-20.88-17-20.88-17-9.45,22-34.06,111.41-35,135.31-.41,10.75,4.09,33.72,30.24,27.48,5.35-1.28,13.15-9.81,22.17-22.56a351.76,351.76,0,0,1-8.21,37.67c-7.65,28-23.76,53.95-46.51,74.87L1339,605.13s6.26,4.65,38.45-3c38.28-9.14,57-100.57,57-100.57s8.07-48.32,12-64.53c1.29-5.3,18.62-46,22.88-56.32C1489.46,342.09,1505.3,308.51,1505.3,308.51Z"/></g></svg>