<?xml version="1.0" encoding="utf-8"?>
<!-- Generator: Adobe Illustrator 21.1.0, SVG Export Plug-In . SVG Version: 6.00 Build 0)  -->
<svg version="1.1" id="Layer_1" xmlns="http://www.w3.org/2000/svg" xmlns:xlink="http://www.w3.org/1999/xlink" x="0px" y="0px"
	 viewBox="0 0 1920 1080" style="enable-background:new 0 0 1920 1080;" xml:space="preserve">
<style type="text/css">
	.st0{fill:#0C0C0B;}
</style>
<title>wednesday-01</title>
<g id="w">
	<path class="st0" d="M386.5,715c0,0,14.3,1.4,19.7-9.3c3-6,20-43.8,39.6-82.7c7.4-14.6,38.8-57.3,47.2-60.1
		c0,0-74,142.5-57.5,150.7s21.2,8.3,24,2.6s59-85.9,59-85.9s-22.9,50.2,0.5,62s29.4-12.9,39-31.9s44.5-94.8,44.5-94.8
		s32-55.9,34.9-56.9s7.2-3.8,6.2-6.6c0,0-20.8-6.8-23.4-1.8s-32.6,45.9-56.4,101.2s-31.2,79.3-34.3,77.7s2-43.3,22.6-84.4
		c4.1-8.2-14.8-6.7-22.4-4.2s-65.7,84.9-67.9,87.8s42.9-96.4,42.9-96.4s8.8-18.3,12.7-31.6c1.2-4,2.5-8.6,0.7-10.8
		c-1.4-1.6-6.3-1.9-8.7-1.9c0,0-2.2,0-3,0c-6.9-0.3-18.3,8.8-34.5,24.6c-16.7,16.3-39.1,53-55.3,83.6L386.5,715z"/>
</g>
<g id="e">
	<path class="st0" d="M693.8,530.2c0,0-10.6-16.3-33.9-10.8c-13.8,3.3-34.2,25.4-51.3,57.5s-35.7,73.5-8.8,92.4s62.5-24.8,62.5-24.8
		s30.3-42.1,37.8-43.9l-22.8-6.2c0,0-47.7,65.1-62.5,68.7s-2.8-43,2.2-55.4c5.9-14.7,25.3-46.1,31.6-53.7c0,0,20.3-21.7,26.1-23.1
		s-25,59-33.1,64c-7.5,4.5-20.5,12.6-28.6,6.8c0,0-9.4-3.7,9.5,9.6c9.1,6.4,37.7-9.4,42.9-13.9c7-6,7.7-7,20.9-31.8
		C700.8,538.4,693.8,530.2,693.8,530.2z"/>
</g>
<g id="d">
	<path class="st0" d="M822.2,535c-17.6,24.2-49.3,80.4-49.3,80.4c-11.4-8.3,99.4-257.6,99.4-257.6c-1-6.4-29.2-17.8-26.2-15.6
		c6.6,4.8-2.5,25.7-2.5,25.7c-6.5,13.7-47.2,106.9-59.1,134.3l-0.6-2.2c0,0-26.6-23.1-61,24.1s-47.8,77.7-44.5,99.1
		s34.2,29.9,46.2,13.3c6.5-9,16.9-21,25-31.2c-2.3,8.6-3.5,15.1-3.1,17.8c2,12.8,22.8,8.1,26.5,7.5s40.6-55.7,40.6-55.7
		S839.8,510.8,822.2,535z M703,633.2c-8.6,1.4-1.8-33.8,9.1-54.5c5.3-10.1,23.8-43,39.9-59.9c0,0,11-12.6,18.1-13.7
		c8.5-1.3,10.8,1.9,10.2,6.7c-0.7,1.8-1.8,4.9-3.2,8.8c-3.2,6-7,11.7-11.3,17C765.9,537.5,711.7,631.8,703,633.2z"/>
</g>
<g id="n">
	<path class="st0" d="M846.7,474.3c0,0,1.3,3.8-2.8,13.5c0,0-6.3,13.7-21.3,46.8c-8,17.8-25.2,69.7-25.2,69.7s10.6,14.3,18.5,13.4
		s4.6-14.2,4.6-14.2s22.6-68.7,38.9-89.4c6.3-8,35.7-28.7,36.5-28s-37.6,98.9-42.6,110.6c-1.8,4.3-6.9,5.6,9,16.6
		c9.9,6.8,56.9-57.2,56.9-57.2s-7.2-10.8-10.8-6.3S883.3,586,883.3,586s23.7-78.6,32.3-93.4c0.6-1,7.8-4,8.1-5.2
		c0.9-2.7-2.6-6.3-10.8-12.8c0,0-8.3-5.2-11.7-4.8s-28.5,21-28.5,21l-6.2,4.8c-3.8-2.7-6.9-14.3-9.7-16.1
		C854.5,478,846.7,474.3,846.7,474.3z"/>
</g>
<g id="e-2">
	<path class="st0" d="M1020.9,452.2c0,0-10.6-16.4-33.9-10.8c-13.9,3.3-34.2,25.4-51.3,57.5s-35.7,73.6-8.8,92.4
		s62.5-24.8,62.5-24.8l32.8-41.4l-20.7-4.7c0,0-44.8,61.2-59.6,64.7s-2.8-43,2.2-55.4c6-14.7,25.3-46.1,31.6-53.7
		c0,0,20.3-21.7,26.1-23.1s-25,59-33.1,64c-7.5,4.5-20.5,12.6-28.6,6.8c0,0-9.4-3.7,9.5,9.6c9.1,6.4,37.7-9.4,42.9-13.9
		c7-6,7.7-7,20.9-31.8C1028,460.3,1020.9,452.2,1020.9,452.2z"/>
</g>
<g id="s">
	<path class="st0" d="M1155.2,443.1l-14.8-3.7c-4.7,7.5-8,16.7-14.3,22.4c-4,3.6-11.4,8.3-14.5,8.7l6.5-55.7l-21-4.5
		c0,0-71.1,80-95.7,110.2l17.2,8.5l7.5-8.2c-3.5,11-1.8,24.4,6.7,32.8c7.5,7.5,30.4,11.4,42.2,9.5c30.1-4.6,29.8-34.8,32.2-55.5
		c0.6-5.4,1.7-13,2.5-19.5c0,0,12.7-2.9,20.7-8.5C1140.7,472.4,1155.2,443.1,1155.2,443.1z M1082.8,522.1c-1.5,9-4.4,19.1-13.5,24.9
		c-7.6,4.7-17.4,3.6-23.9-2.6c-6.7-6.5-6.2-16.7-1.8-24.5c8.2-14.6,25.7-19.1,42.4-23.7C1085,504.9,1084.2,513.6,1082.8,522.1
		L1082.8,522.1z M1087.6,481.7c-13.2,4-26.7,6.5-38.6,13.5c-1.5,0.9-3,1.9-4.4,2.9l48-58.9L1087.6,481.7z"/>
</g>
<g id="d-2">
	<path class="st0" d="M1262.2,436.9c-17.6,24.1-49.3,80.4-49.3,80.4c-11.4-8.3,99.4-257.6,99.4-257.6c-1-6.4-29.2-17.8-26.2-15.6
		c6.6,4.8-2.5,25.7-2.5,25.7c-6.5,13.7-47.2,106.9-59.1,134.3l-0.6-2.2c0,0-26.6-23.1-61,24.1s-47.8,77.7-44.5,99.1
		c3.4,21.4,34.2,29.9,46.2,13.3c6.5-9,16.9-21,25-31.2c-2.3,8.6-3.5,15.1-3.1,17.8c2,12.8,22.8,8.1,26.5,7.5s40.6-55.7,40.6-55.7
		S1279.8,412.7,1262.2,436.9z M1143.1,535.1c-8.6,1.4-1.8-33.8,9.1-54.5c5.3-10.1,23.8-43,39.9-59.9c0,0,11-12.6,18.1-13.7
		c8.5-1.3,10.8,1.9,10.2,6.7c-0.7,1.8-1.8,4.9-3.2,8.8c-3.2,6-7,11.7-11.3,17C1206,439.4,1151.7,533.7,1143.1,535.1L1143.1,535.1z"
		/>
</g>
<g id="a">
	<path class="st0" d="M1325.1,474.1c-8.7,4.4,14-56.1,14-56.1c7.6-20,28.8-65.3,28.8-65.3c-2.2-9-18.4-9.4-18.4-9.4
		s-3.4,8.6-8.4,21.6c-1.5-2.2-8.9-11.8-19.8-9.2c-12.3,2.9-15.2,3.4-38,34.1c-27.2,36.5-53.4,108.8-35.1,117.6s27.5,10.7,43.7-10.4
		c2.1-2.8,4-5.7,5.8-8.7l0,0c0.8,10.9,15.4,15.1,23.2,13.2c16.4-3.9,50.8-82.6,50.8-82.6l1.2-20.9
		C1372.7,398,1333.8,469.8,1325.1,474.1z M1281.9,479.5c0,0-11.2,20.8-13.5,21.3s-3.5-22.6-1.7-29.2c3.3-12,20.2-57.8,39.4-82.8
		s16.9-26.1,19.5-15.2s0.1,17.4,0.1,17.4S1298.7,457.6,1281.9,479.5z"/>
</g>
<g id="y">
	<path class="st0" d="M1499.5,307.2c-3.5-14.5-21.9-8.9-21.9-8.9s-84.3,177.4-92.3,179.3s-4.9-24.1,1.8-44.8
		c3.8-11.7,27.4-86,27.4-86c-3.5-14.5-20.9-17-20.9-17c-9.4,22-34.1,111.4-35,135.3c-0.4,10.8,4.1,33.7,30.2,27.5
		c5.3-1.3,13.2-9.8,22.2-22.6c-2,12.7-4.8,25.3-8.2,37.7c-7.7,28-23.8,54-46.5,74.9l-23.1,21.2c0,0,6.3,4.7,38.4-3
		c38.3-9.1,57-100.6,57-100.6s22-80,26-96.2c1.3-5.3,4.6-14.2,8.9-24.6C1483.6,340.8,1499.5,307.2,1499.5,307.2z"/>
</g>
</svg>
